<?xml version="1.0" encoding="utf-8"?>
<!-- Generator: Adobe Illustrator 26.3.0, SVG Export Plug-In . SVG Version: 6.00 Build 0)  -->
<svg version="1.1" id="Layer_1" xmlns:svg="http://www.w3.org/2000/svg"
	 xmlns="http://www.w3.org/2000/svg" xmlns:xlink="http://www.w3.org/1999/xlink" x="0px" y="0px" viewBox="0 0 110.5 110.5"
	 style="enable-background:new 0 0 110.5 110.5;" xml:space="preserve">
<style type="text/css">
	.st0{fill:#22D3C5;}
</style>
<path id="path4" class="st0" d="M23.3,80.1L23.3,80.1L23.3,80.1L23.3,80.1z M93.5,93.7l15.2-4.9V47.1L91.2,29.5c-3.3-3-7.1-5-11.4-6
	l-2.6-7.9L63.4,1.9c-2.7-1.9-5.3-2.6-7.6-0.8l-33,21.7L1,55.8c-1.5,1.9-1.2,4.5,1,7.6c0.7,1.4,8.2,8.6,13.6,14l7.8,2.7
	c1.1,4.1,3.4,8.7,6,11.3l18.3,18.2l40.8,0.1L93.5,93.7z"/>
</svg>
